# 3ds Max Wavefront OBJ Exporter v0.97b - (c)2007 guruware
# File Created: 25.06.2018 19:08:11

mtllib sphere.mtl

#
# object Sphere001
#

v  -0.9166 -0.5476 2.0000
v  -0.9166 0.8666 1.4142
v  -1.9166 0.4524 1.4142
v  -2.3309 -0.5476 1.4142
v  -1.9166 -1.5476 1.4142
v  -0.9166 -1.9618 1.4142
v  0.0834 -1.5476 1.4142
v  0.4976 -0.5476 1.4142
v  0.0834 0.4524 1.4142
v  -0.9166 1.4524 -0.0000
v  -2.3309 0.8666 -0.0000
v  -2.9166 -0.5476 -0.0000
v  -2.3309 -1.9618 -0.0000
v  -0.9166 -2.5476 -0.0000
v  0.4976 -1.9618 -0.0000
v  1.0834 -0.5476 -0.0000
v  0.4976 0.8666 -0.0000
v  -0.9166 0.8666 -1.4142
v  -1.9166 0.4524 -1.4142
v  -2.3309 -0.5476 -1.4142
v  -1.9166 -1.5476 -1.4142
v  -0.9166 -1.9618 -1.4142
v  0.0834 -1.5476 -1.4142
v  0.4976 -0.5476 -1.4142
v  0.0834 0.4524 -1.4142
v  -0.9166 -0.5476 -2.0000
# 26 vertices

vn -0.0000 0.0000 1.0000
vn 0.0000 0.7486 0.6630
vn -0.5294 0.5294 0.6630
vn -0.7486 -0.0000 0.6630
vn -0.5294 -0.5294 0.6630
vn -0.0000 -0.7486 0.6630
vn 0.5294 -0.5294 0.6630
vn 0.7486 -0.0000 0.6630
vn 0.5294 0.5294 0.6630
vn 0.0000 1.0000 -0.0000
vn -0.7071 0.7071 -0.0000
vn -1.0000 -0.0000 -0.0000
vn -0.7071 -0.7071 -0.0000
vn -0.0000 -1.0000 -0.0000
vn 0.7071 -0.7071 -0.0000
vn 1.0000 -0.0000 -0.0000
vn 0.7071 0.7071 -0.0000
vn 0.0000 0.7486 -0.6630
vn -0.5294 0.5294 -0.6630
vn -0.7486 -0.0000 -0.6630
vn -0.5294 -0.5294 -0.6630
vn 0.0000 -0.7486 -0.6630
vn 0.5294 -0.5294 -0.6630
vn 0.7486 -0.0000 -0.6630
vn 0.5294 0.5294 -0.6630
vn -0.0000 0.0000 -1.0000
# 26 vertex normals

vt 0.0000 1.0000 0.0000
vt 0.0000 0.7500 0.0000
vt 0.1250 0.7500 0.0000
vt 0.1250 1.0000 0.0000
vt 0.2500 0.7500 0.0000
vt 0.2500 1.0000 0.0000
vt 0.3750 0.7500 0.0000
vt 0.3750 1.0000 0.0000
vt 0.5000 0.7500 0.0000
vt 0.5000 1.0000 0.0000
vt 0.6250 0.7500 0.0000
vt 0.6250 1.0000 0.0000
vt 0.7500 0.7500 0.0000
vt 0.7500 1.0000 0.0000
vt 0.8750 0.7500 0.0000
vt 0.8750 1.0000 0.0000
vt 1.0000 0.7500 0.0000
vt 0.0000 0.5000 0.0000
vt 0.1250 0.5000 0.0000
vt 0.2500 0.5000 0.0000
vt 0.3750 0.5000 0.0000
vt 0.5000 0.5000 0.0000
vt 0.6250 0.5000 0.0000
vt 0.7500 0.5000 0.0000
vt 0.8750 0.5000 0.0000
vt 1.0000 0.5000 0.0000
vt 0.0000 0.2500 0.0000
vt 0.1250 0.2500 0.0000
vt 0.2500 0.2500 0.0000
vt 0.3750 0.2500 0.0000
vt 0.5000 0.2500 0.0000
vt 0.6250 0.2500 0.0000
vt 0.7500 0.2500 0.0000
vt 0.8750 0.2500 0.0000
vt 1.0000 0.2500 0.0000
vt 0.0000 0.0000 0.0000
vt 0.1250 0.0000 0.0000
vt 0.2500 0.0000 0.0000
vt 0.3750 0.0000 0.0000
vt 0.5000 0.0000 0.0000
vt 0.6250 0.0000 0.0000
vt 0.7500 0.0000 0.0000
vt 0.8750 0.0000 0.0000
# 43 texture coords

g Sphere001
usemtl wire_184228153
s 1
f -26/-43/-26 -25/-42/-25 -24/-41/-24 
f -26/-40/-26 -24/-41/-24 -23/-39/-23 
f -26/-38/-26 -23/-39/-23 -22/-37/-22 
f -26/-36/-26 -22/-37/-22 -21/-35/-21 
f -26/-34/-26 -21/-35/-21 -20/-33/-20 
f -26/-32/-26 -20/-33/-20 -19/-31/-19 
f -26/-30/-26 -19/-31/-19 -18/-29/-18 
f -26/-28/-26 -18/-29/-18 -25/-27/-25 
f -25/-42/-25 -17/-26/-17 -16/-25/-16 
f -25/-42/-25 -16/-25/-16 -24/-41/-24 
f -24/-41/-24 -16/-25/-16 -15/-24/-15 
f -24/-41/-24 -15/-24/-15 -23/-39/-23 
f -23/-39/-23 -15/-24/-15 -14/-23/-14 
f -23/-39/-23 -14/-23/-14 -22/-37/-22 
f -22/-37/-22 -14/-23/-14 -13/-22/-13 
f -22/-37/-22 -13/-22/-13 -21/-35/-21 
f -21/-35/-21 -13/-22/-13 -12/-21/-12 
f -21/-35/-21 -12/-21/-12 -20/-33/-20 
f -20/-33/-20 -12/-21/-12 -11/-20/-11 
f -20/-33/-20 -11/-20/-11 -19/-31/-19 
f -19/-31/-19 -11/-20/-11 -10/-19/-10 
f -19/-31/-19 -10/-19/-10 -18/-29/-18 
f -18/-29/-18 -10/-19/-10 -17/-18/-17 
f -18/-29/-18 -17/-18/-17 -25/-27/-25 
f -17/-26/-17 -9/-17/-9 -8/-16/-8 
f -17/-26/-17 -8/-16/-8 -16/-25/-16 
f -16/-25/-16 -8/-16/-8 -7/-15/-7 
f -16/-25/-16 -7/-15/-7 -15/-24/-15 
f -15/-24/-15 -7/-15/-7 -6/-14/-6 
f -15/-24/-15 -6/-14/-6 -14/-23/-14 
f -14/-23/-14 -6/-14/-6 -5/-13/-5 
f -14/-23/-14 -5/-13/-5 -13/-22/-13 
f -13/-22/-13 -5/-13/-5 -4/-12/-4 
f -13/-22/-13 -4/-12/-4 -12/-21/-12 
f -12/-21/-12 -4/-12/-4 -3/-11/-3 
f -12/-21/-12 -3/-11/-3 -11/-20/-11 
f -11/-20/-11 -3/-11/-3 -2/-10/-2 
f -11/-20/-11 -2/-10/-2 -10/-19/-10 
f -10/-19/-10 -2/-10/-2 -9/-9/-9 
f -10/-19/-10 -9/-9/-9 -17/-18/-17 
f -1/-8/-1 -8/-16/-8 -9/-17/-9 
f -1/-7/-1 -7/-15/-7 -8/-16/-8 
f -1/-6/-1 -6/-14/-6 -7/-15/-7 
f -1/-5/-1 -5/-13/-5 -6/-14/-6 
f -1/-4/-1 -4/-12/-4 -5/-13/-5 
f -1/-3/-1 -3/-11/-3 -4/-12/-4 
f -1/-2/-1 -2/-10/-2 -3/-11/-3 
f -1/-1/-1 -9/-9/-9 -2/-10/-2 
# 48 faces

